<svg width="79" height="24" viewBox="0 0 79 24" fill="none" xmlns="http://www.w3.org/2000/svg">
<path d="M5.23414 2.16551C-0.323245 5.96218 -1.66844 13.443 2.22946 18.8744C5.19937 23.0128 10.3561 24.7673 15.1013 23.689C13.8226 22.8745 12.6706 21.8143 11.7408 20.5188C7.84288 15.0873 9.18811 7.60658 14.7455 3.80992C16.0648 2.90857 17.5217 2.28999 19 1.95241C14.9181 -0.646705 9.46526 -0.725105 5.23414 2.16551Z" fill="white"/>
<path d="M23.112 19.16C21.416 19.16 20.1093 18.664 19.192 17.672C18.2853 16.68 17.832 15.2613 17.832 13.416C17.832 12.2107 18.04 11.176 18.456 10.312C18.8827 9.448 19.4907 8.78667 20.28 8.328C21.0693 7.86933 22.0133 7.64 23.112 7.64C23.784 7.64 24.4293 7.75733 25.048 7.992C25.6773 8.216 26.1733 8.52 26.536 8.904C26.4827 9.24533 26.3493 9.56533 26.136 9.864C25.9227 10.1627 25.7253 10.312 25.544 10.312C25.3947 10.312 25.256 10.264 25.128 10.168C24.7653 9.89067 24.424 9.69333 24.104 9.576C23.7947 9.45867 23.4533 9.4 23.08 9.4C21.2667 9.4 20.36 10.7387 20.36 13.416C20.36 16.072 21.2667 17.4 23.08 17.4C23.56 17.4 24.0187 17.304 24.456 17.112C24.904 16.92 25.2933 16.6427 25.624 16.28C25.8693 16.3973 26.0667 16.5627 26.216 16.776C26.3653 16.9787 26.44 17.192 26.44 17.416C26.44 17.7253 26.2853 18.0133 25.976 18.28C25.6773 18.5467 25.272 18.76 24.76 18.92C24.248 19.08 23.6987 19.16 23.112 19.16ZM35.9719 14.024C35.9719 14.1733 35.9452 14.5093 35.8919 15.032H30.2279C30.2812 15.8427 30.4732 16.472 30.8039 16.92C31.1452 17.368 31.5879 17.592 32.1319 17.592C32.3772 17.592 32.5799 17.56 32.7399 17.496C32.9105 17.432 33.0812 17.32 33.2519 17.16C33.4332 16.9893 33.6679 16.7173 33.9559 16.344C34.0092 16.2587 34.1212 16.216 34.2919 16.216C34.4732 16.216 34.6919 16.28 34.9479 16.408C35.2145 16.5253 35.4972 16.696 35.7959 16.92C35.1025 18.4133 33.8812 19.16 32.1319 19.16C30.7879 19.16 29.7319 18.7547 28.9639 17.944C28.1959 17.1227 27.8119 16.0027 27.8119 14.584C27.8119 13.656 27.9825 12.8507 28.3239 12.168C28.6759 11.4853 29.1719 10.9627 29.8119 10.6C30.4625 10.2267 31.2305 10.04 32.1159 10.04C33.3425 10.04 34.2919 10.3867 34.9639 11.08C35.6359 11.7733 35.9719 12.7547 35.9719 14.024ZM33.5719 13.688C33.5719 12.2587 33.0705 11.544 32.0679 11.544C31.5559 11.544 31.1452 11.7253 30.8359 12.088C30.5265 12.4507 30.3345 12.984 30.2599 13.688H33.5719ZM37.4131 6.344H39.7811V19H37.4131V6.344ZM49.5344 14.024C49.5344 14.1733 49.5077 14.5093 49.4544 15.032H43.7904C43.8437 15.8427 44.0357 16.472 44.3664 16.92C44.7077 17.368 45.1504 17.592 45.6944 17.592C45.9397 17.592 46.1424 17.56 46.3024 17.496C46.473 17.432 46.6437 17.32 46.8144 17.16C46.9957 16.9893 47.2304 16.7173 47.5184 16.344C47.5717 16.2587 47.6837 16.216 47.8544 16.216C48.0357 16.216 48.2544 16.28 48.5104 16.408C48.777 16.5253 49.0597 16.696 49.3584 16.92C48.665 18.4133 47.4437 19.16 45.6944 19.16C44.3504 19.16 43.2944 18.7547 42.5264 17.944C41.7584 17.1227 41.3744 16.0027 41.3744 14.584C41.3744 13.656 41.545 12.8507 41.8864 12.168C42.2384 11.4853 42.7344 10.9627 43.3744 10.6C44.025 10.2267 44.793 10.04 45.6784 10.04C46.905 10.04 47.8544 10.3867 48.5264 11.08C49.1984 11.7733 49.5344 12.7547 49.5344 14.024ZM47.1344 13.688C47.1344 12.2587 46.633 11.544 45.6304 11.544C45.1184 11.544 44.7077 11.7253 44.3984 12.088C44.089 12.4507 43.897 12.984 43.8224 13.688H47.1344ZM53.9356 19.16C52.8903 19.16 52.0636 19 51.4556 18.68C50.8583 18.36 50.5596 17.9493 50.5596 17.448C50.5596 17.1493 50.661 16.8987 50.8636 16.696C51.077 16.4827 51.381 16.3653 51.7756 16.344C51.9996 16.7707 52.2876 17.0907 52.6396 17.304C53.0023 17.5173 53.4556 17.624 53.9996 17.624C54.9383 17.624 55.4076 17.272 55.4076 16.568C55.4076 16.28 55.2743 16.0613 55.0076 15.912C54.741 15.7627 54.3036 15.5867 53.6956 15.384C53.077 15.1813 52.565 14.984 52.1596 14.792C51.765 14.6 51.4236 14.3227 51.1356 13.96C50.8476 13.5867 50.7036 13.1067 50.7036 12.52C50.7036 12.0187 50.8583 11.5813 51.1676 11.208C51.4876 10.824 51.9036 10.536 52.4156 10.344C52.9383 10.1413 53.5036 10.04 54.1116 10.04C54.8903 10.04 55.573 10.1893 56.1596 10.488C56.7463 10.7867 57.205 11.1867 57.5356 11.688C57.397 11.9547 57.205 12.1893 56.9596 12.392C56.725 12.584 56.5116 12.68 56.3196 12.68C56.213 12.68 56.1223 12.664 56.0476 12.632C55.973 12.5893 55.8983 12.5253 55.8236 12.44C55.3436 11.8427 54.7943 11.544 54.1756 11.544C53.7703 11.544 53.4556 11.624 53.2316 11.784C53.0183 11.9333 52.9116 12.1627 52.9116 12.472C52.9116 12.8027 53.0556 13.0533 53.3436 13.224C53.6423 13.3947 54.1063 13.5707 54.7356 13.752C55.333 13.912 55.8236 14.0827 56.2076 14.264C56.6023 14.4347 56.933 14.696 57.1996 15.048C57.477 15.3893 57.6156 15.8427 57.6156 16.408C57.6156 17.2933 57.2956 17.976 56.6556 18.456C56.0263 18.9253 55.1196 19.16 53.9356 19.16ZM64.0458 17.448C64.1631 17.48 64.2538 17.5493 64.3178 17.656C64.3818 17.7627 64.4138 17.8907 64.4138 18.04C64.4138 18.264 64.3444 18.4453 64.2058 18.584C64.0351 18.7547 63.7524 18.8933 63.3578 19C62.9738 19.1067 62.5471 19.16 62.0778 19.16C61.3418 19.16 60.7498 18.9573 60.3018 18.552C59.8538 18.136 59.6298 17.5867 59.6298 16.904V11.704H58.2858V10.2H59.6298V7.8H61.9978V10.2H63.6618V11.704H61.9978V16.696C61.9978 17.0693 62.0564 17.336 62.1738 17.496C62.3018 17.6453 62.5204 17.72 62.8298 17.72C63.1711 17.72 63.5764 17.6293 64.0458 17.448ZM65.6981 10.2H68.0661V19H65.6981V10.2ZM66.7701 8.584C65.9381 8.584 65.5221 8.168 65.5221 7.336V7.096C65.5221 6.264 65.9381 5.848 66.7701 5.848H66.9941C67.8261 5.848 68.2421 6.264 68.2421 7.096V7.336C68.2421 8.168 67.8261 8.584 66.9941 8.584H66.7701ZM77.2835 15.688C77.2835 16.5627 77.3155 17.192 77.3795 17.576C77.4542 17.96 77.5982 18.2907 77.8115 18.568C77.5875 18.728 77.2995 18.8613 76.9475 18.968C76.5955 19.064 76.2755 19.112 75.9875 19.112C75.7208 19.112 75.5075 19.016 75.3475 18.824C75.1875 18.632 75.0702 18.328 74.9955 17.912C74.7075 18.36 74.3662 18.68 73.9715 18.872C73.5768 19.064 73.0648 19.16 72.4355 19.16C71.6568 19.16 71.0275 18.952 70.5475 18.536C70.0675 18.1093 69.8275 17.5547 69.8275 16.872C69.8275 15.912 70.2275 15.1973 71.0275 14.728C71.8382 14.248 73.1342 13.96 74.9155 13.864V13.032C74.9155 12.5947 74.7982 12.2693 74.5635 12.056C74.3395 11.8427 73.9928 11.736 73.5235 11.736C73.1822 11.736 72.8408 11.8053 72.4995 11.944C72.1688 12.072 71.7582 12.3013 71.2675 12.632C71.2142 12.6747 71.1395 12.696 71.0435 12.696C70.8515 12.696 70.6435 12.568 70.4195 12.312C70.2062 12.056 70.0142 11.72 69.8435 11.304C70.2595 10.9413 70.8408 10.6427 71.5875 10.408C72.3448 10.1627 73.0915 10.04 73.8275 10.04C74.9368 10.04 75.7902 10.3013 76.3875 10.824C76.9848 11.336 77.2835 12.072 77.2835 13.032V15.688ZM73.2675 17.624C73.5875 17.624 73.8808 17.512 74.1475 17.288C74.4248 17.064 74.6808 16.7173 74.9155 16.248V15.064C74.0302 15.096 73.3582 15.2453 72.8995 15.512C72.4515 15.768 72.2275 16.136 72.2275 16.616C72.2275 16.9253 72.3235 17.1707 72.5155 17.352C72.7075 17.5333 72.9582 17.624 73.2675 17.624Z" fill="white"/>
</svg>
